<mxfile host="app.diagrams.net" modified="2023-04-13T03:37:03.241Z" agent="Mozilla/5.0 (Macintosh; Intel Mac OS X 10_15_7) AppleWebKit/537.36 (KHTML, like Gecko) Chrome/110.0.0.0 Safari/537.36" etag="bsoZeaqfSOAhsA-VkogY" version="21.1.5" type="github">
  <diagram name="第 1 页" id="ZRmCv5PV6aarmLKB5haa">
    <mxGraphModel dx="2074" dy="1074" grid="1" gridSize="10" guides="1" tooltips="1" connect="1" arrows="1" fold="1" page="1" pageScale="1" pageWidth="827" pageHeight="1169" math="0" shadow="0">
      <root>
        <mxCell id="0" />
        <mxCell id="1" parent="0" />
        <mxCell id="ErXdo7OK-UVKG9JZovRo-5" value="监听kafka广播获取游戏库新增、更新APK的消息" style="edgeStyle=orthogonalEdgeStyle;rounded=0;orthogonalLoop=1;jettySize=auto;html=1;entryX=0.5;entryY=0;entryDx=0;entryDy=0;" edge="1" parent="1" source="ErXdo7OK-UVKG9JZovRo-2" target="ErXdo7OK-UVKG9JZovRo-3">
          <mxGeometry relative="1" as="geometry" />
        </mxCell>
        <mxCell id="ErXdo7OK-UVKG9JZovRo-2" value="隐私检测程序" style="ellipse;whiteSpace=wrap;html=1;" vertex="1" parent="1">
          <mxGeometry x="320" y="20" width="120" height="80" as="geometry" />
        </mxCell>
        <mxCell id="ErXdo7OK-UVKG9JZovRo-6" style="edgeStyle=orthogonalEdgeStyle;rounded=0;orthogonalLoop=1;jettySize=auto;html=1;entryX=0.5;entryY=0;entryDx=0;entryDy=0;" edge="1" parent="1" source="ErXdo7OK-UVKG9JZovRo-3">
          <mxGeometry relative="1" as="geometry">
            <mxPoint x="380" y="320" as="targetPoint" />
          </mxGeometry>
        </mxCell>
        <mxCell id="ErXdo7OK-UVKG9JZovRo-7" value="消费kafka消息，获取app_id" style="edgeLabel;html=1;align=center;verticalAlign=middle;resizable=0;points=[];" vertex="1" connectable="0" parent="ErXdo7OK-UVKG9JZovRo-6">
          <mxGeometry x="-0.1714" y="-1" relative="1" as="geometry">
            <mxPoint as="offset" />
          </mxGeometry>
        </mxCell>
        <mxCell id="ErXdo7OK-UVKG9JZovRo-3" value="kafka广播" style="ellipse;whiteSpace=wrap;html=1;" vertex="1" parent="1">
          <mxGeometry x="320" y="170" width="120" height="80" as="geometry" />
        </mxCell>
        <mxCell id="ErXdo7OK-UVKG9JZovRo-9" value="" style="rhombus;whiteSpace=wrap;html=1;" vertex="1" parent="1">
          <mxGeometry x="295" y="460" width="170" height="80" as="geometry" />
        </mxCell>
        <mxCell id="ErXdo7OK-UVKG9JZovRo-12" value="" style="edgeStyle=orthogonalEdgeStyle;rounded=0;orthogonalLoop=1;jettySize=auto;html=1;" edge="1" parent="1" source="ErXdo7OK-UVKG9JZovRo-10" target="ErXdo7OK-UVKG9JZovRo-9">
          <mxGeometry relative="1" as="geometry" />
        </mxCell>
        <mxCell id="ErXdo7OK-UVKG9JZovRo-10" value="通过游戏库API获取apk的详细信息" style="rounded=1;whiteSpace=wrap;html=1;" vertex="1" parent="1">
          <mxGeometry x="310" y="320" width="140" height="70" as="geometry" />
        </mxCell>
      </root>
    </mxGraphModel>
  </diagram>
</mxfile>
